<mxfile host="app.diagrams.net" modified="2023-11-23T21:32:19.986Z" agent="Mozilla/5.0 (Windows NT 10.0; Win64; x64) AppleWebKit/537.36 (KHTML, like Gecko) Chrome/119.0.0.0 Safari/537.36" etag="J3TqLD7Kh82G46YdVVx7" version="22.1.3" type="github">
  <diagram name="Page-1" id="RmKxruwo47LQMHnwAsR9">
    <mxGraphModel dx="2398" dy="722" grid="0" gridSize="10" guides="1" tooltips="1" connect="1" arrows="1" fold="1" page="1" pageScale="1" pageWidth="850" pageHeight="1100" math="0" shadow="0">
      <root>
        <mxCell id="0" />
        <mxCell id="1" parent="0" />
        <mxCell id="j6pfKqDrukdR5E3IU2XC-11" value="BUILDING" style="shape=table;startSize=30;container=1;collapsible=0;childLayout=tableLayout;hachureGap=4;fontFamily=Helvetica;fontSize=20;labelBackgroundColor=none;" vertex="1" parent="1">
          <mxGeometry x="-568" y="25" width="240" height="70" as="geometry" />
        </mxCell>
        <mxCell id="j6pfKqDrukdR5E3IU2XC-12" value="" style="shape=tableRow;horizontal=0;startSize=0;swimlaneHead=0;swimlaneBody=0;top=0;left=0;bottom=0;right=0;collapsible=0;dropTarget=0;fillColor=none;points=[[0,0.5],[1,0.5]];portConstraint=eastwest;hachureGap=4;fontFamily=Architects Daughter;fontSource=https%3A%2F%2Ffonts.googleapis.com%2Fcss%3Ffamily%3DArchitects%2BDaughter;fontSize=20;labelBackgroundColor=none;" vertex="1" parent="j6pfKqDrukdR5E3IU2XC-11">
          <mxGeometry y="30" width="240" height="40" as="geometry" />
        </mxCell>
        <mxCell id="j6pfKqDrukdR5E3IU2XC-13" value="&lt;font face=&quot;Helvetica&quot; style=&quot;font-size: 20px;&quot;&gt;&lt;u style=&quot;font-size: 20px;&quot;&gt;B#&lt;span style=&quot;white-space: pre; font-size: 20px;&quot;&gt;&#x9;&lt;/span&gt;&lt;span style=&quot;white-space: pre; font-size: 20px;&quot;&gt;&#x9;&lt;/span&gt;BC&lt;span style=&quot;white-space: pre; font-size: 20px;&quot;&gt;&#x9;&lt;/span&gt;&lt;/u&gt;&lt;/font&gt;" style="shape=partialRectangle;html=1;whiteSpace=wrap;connectable=0;overflow=hidden;fillColor=none;top=0;left=0;bottom=0;right=0;pointerEvents=1;hachureGap=4;fontFamily=Architects Daughter;fontSource=https%3A%2F%2Ffonts.googleapis.com%2Fcss%3Ffamily%3DArchitects%2BDaughter;fontSize=20;labelBackgroundColor=none;" vertex="1" parent="j6pfKqDrukdR5E3IU2XC-12">
          <mxGeometry width="60" height="40" as="geometry">
            <mxRectangle width="60" height="40" as="alternateBounds" />
          </mxGeometry>
        </mxCell>
        <mxCell id="j6pfKqDrukdR5E3IU2XC-14" value="&lt;font face=&quot;Helvetica&quot; style=&quot;font-size: 20px;&quot;&gt;&lt;u style=&quot;font-size: 20px;&quot;&gt;Name&lt;/u&gt;&lt;/font&gt;" style="shape=partialRectangle;html=1;whiteSpace=wrap;connectable=0;overflow=hidden;fillColor=none;top=0;left=0;bottom=0;right=0;pointerEvents=1;hachureGap=4;fontFamily=Architects Daughter;fontSource=https%3A%2F%2Ffonts.googleapis.com%2Fcss%3Ffamily%3DArchitects%2BDaughter;fontSize=20;labelBackgroundColor=none;" vertex="1" parent="j6pfKqDrukdR5E3IU2XC-12">
          <mxGeometry x="60" width="60" height="40" as="geometry">
            <mxRectangle width="60" height="40" as="alternateBounds" />
          </mxGeometry>
        </mxCell>
        <mxCell id="j6pfKqDrukdR5E3IU2XC-15" value="&lt;font face=&quot;Helvetica&quot; style=&quot;font-size: 20px;&quot;&gt;BC&lt;/font&gt;" style="shape=partialRectangle;html=1;whiteSpace=wrap;connectable=0;overflow=hidden;fillColor=none;top=0;left=0;bottom=0;right=0;pointerEvents=1;hachureGap=4;fontFamily=Architects Daughter;fontSource=https%3A%2F%2Ffonts.googleapis.com%2Fcss%3Ffamily%3DArchitects%2BDaughter;fontSize=20;labelBackgroundColor=none;" vertex="1" parent="j6pfKqDrukdR5E3IU2XC-12">
          <mxGeometry x="120" width="60" height="40" as="geometry">
            <mxRectangle width="60" height="40" as="alternateBounds" />
          </mxGeometry>
        </mxCell>
        <mxCell id="j6pfKqDrukdR5E3IU2XC-16" value="&lt;font face=&quot;Helvetica&quot; style=&quot;font-size: 20px;&quot;&gt;BO&lt;/font&gt;" style="shape=partialRectangle;html=1;whiteSpace=wrap;connectable=0;overflow=hidden;fillColor=none;top=0;left=0;bottom=0;right=0;pointerEvents=1;hachureGap=4;fontFamily=Architects Daughter;fontSource=https%3A%2F%2Ffonts.googleapis.com%2Fcss%3Ffamily%3DArchitects%2BDaughter;fontSize=20;labelBackgroundColor=none;" vertex="1" parent="j6pfKqDrukdR5E3IU2XC-12">
          <mxGeometry x="180" width="60" height="40" as="geometry">
            <mxRectangle width="60" height="40" as="alternateBounds" />
          </mxGeometry>
        </mxCell>
        <mxCell id="j6pfKqDrukdR5E3IU2XC-18" value="CLASSROOM   " style="shape=table;startSize=25;container=1;collapsible=0;childLayout=tableLayout;fontSize=20;" vertex="1" parent="1">
          <mxGeometry x="-572" y="161" width="240" height="70" as="geometry" />
        </mxCell>
        <mxCell id="j6pfKqDrukdR5E3IU2XC-19" value="" style="shape=tableRow;horizontal=0;startSize=0;swimlaneHead=0;swimlaneBody=0;strokeColor=inherit;top=0;left=0;bottom=0;right=0;collapsible=0;dropTarget=0;fillColor=none;points=[[0,0.5],[1,0.5]];portConstraint=eastwest;fontSize=20;" vertex="1" parent="j6pfKqDrukdR5E3IU2XC-18">
          <mxGeometry y="25" width="240" height="45" as="geometry" />
        </mxCell>
        <mxCell id="j6pfKqDrukdR5E3IU2XC-20" value="&lt;u style=&quot;font-size: 20px;&quot;&gt;R#&lt;/u&gt;" style="shape=partialRectangle;html=1;whiteSpace=wrap;connectable=0;strokeColor=inherit;overflow=hidden;fillColor=none;top=0;left=0;bottom=0;right=0;pointerEvents=1;fontSize=20;" vertex="1" parent="j6pfKqDrukdR5E3IU2XC-19">
          <mxGeometry width="60" height="45" as="geometry">
            <mxRectangle width="60" height="45" as="alternateBounds" />
          </mxGeometry>
        </mxCell>
        <mxCell id="j6pfKqDrukdR5E3IU2XC-21" value="B#&lt;span style=&quot;white-space: pre; font-size: 20px;&quot;&gt;&#x9;&lt;/span&gt;" style="shape=partialRectangle;html=1;whiteSpace=wrap;connectable=0;strokeColor=inherit;overflow=hidden;fillColor=none;top=0;left=0;bottom=0;right=0;pointerEvents=1;fontSize=20;" vertex="1" parent="j6pfKqDrukdR5E3IU2XC-19">
          <mxGeometry x="60" width="60" height="45" as="geometry">
            <mxRectangle width="60" height="45" as="alternateBounds" />
          </mxGeometry>
        </mxCell>
        <mxCell id="j6pfKqDrukdR5E3IU2XC-22" value="Seats" style="shape=partialRectangle;html=1;whiteSpace=wrap;connectable=0;strokeColor=inherit;overflow=hidden;fillColor=none;top=0;left=0;bottom=0;right=0;pointerEvents=1;fontSize=20;" vertex="1" parent="j6pfKqDrukdR5E3IU2XC-19">
          <mxGeometry x="120" width="60" height="45" as="geometry">
            <mxRectangle width="60" height="45" as="alternateBounds" />
          </mxGeometry>
        </mxCell>
        <mxCell id="j6pfKqDrukdR5E3IU2XC-23" value="CS" style="shape=partialRectangle;html=1;whiteSpace=wrap;connectable=0;strokeColor=inherit;overflow=hidden;fillColor=none;top=0;left=0;bottom=0;right=0;pointerEvents=1;fontSize=20;" vertex="1" parent="j6pfKqDrukdR5E3IU2XC-19">
          <mxGeometry x="180" width="60" height="45" as="geometry">
            <mxRectangle width="60" height="45" as="alternateBounds" />
          </mxGeometry>
        </mxCell>
        <mxCell id="j6pfKqDrukdR5E3IU2XC-24" value="OFFICE" style="shape=table;startSize=30;container=1;collapsible=0;childLayout=tableLayout;fontSize=20;" vertex="1" parent="1">
          <mxGeometry x="-572" y="290" width="240" height="70" as="geometry" />
        </mxCell>
        <mxCell id="j6pfKqDrukdR5E3IU2XC-25" value="" style="shape=tableRow;horizontal=0;startSize=0;swimlaneHead=0;swimlaneBody=0;strokeColor=inherit;top=0;left=0;bottom=0;right=0;collapsible=0;dropTarget=0;fillColor=none;points=[[0,0.5],[1,0.5]];portConstraint=eastwest;fontSize=20;" vertex="1" parent="j6pfKqDrukdR5E3IU2XC-24">
          <mxGeometry y="30" width="240" height="40" as="geometry" />
        </mxCell>
        <mxCell id="j6pfKqDrukdR5E3IU2XC-26" value="&lt;u style=&quot;font-size: 20px;&quot;&gt;R#&lt;/u&gt;" style="shape=partialRectangle;html=1;whiteSpace=wrap;connectable=0;strokeColor=inherit;overflow=hidden;fillColor=none;top=0;left=0;bottom=0;right=0;pointerEvents=1;fontSize=20;" vertex="1" parent="j6pfKqDrukdR5E3IU2XC-25">
          <mxGeometry width="60" height="40" as="geometry">
            <mxRectangle width="60" height="40" as="alternateBounds" />
          </mxGeometry>
        </mxCell>
        <mxCell id="j6pfKqDrukdR5E3IU2XC-27" value="B#" style="shape=partialRectangle;html=1;whiteSpace=wrap;connectable=0;strokeColor=inherit;overflow=hidden;fillColor=none;top=0;left=0;bottom=0;right=0;pointerEvents=1;fontSize=20;" vertex="1" parent="j6pfKqDrukdR5E3IU2XC-25">
          <mxGeometry x="60" width="60" height="40" as="geometry">
            <mxRectangle width="60" height="40" as="alternateBounds" />
          </mxGeometry>
        </mxCell>
        <mxCell id="j6pfKqDrukdR5E3IU2XC-28" value="BO" style="shape=partialRectangle;html=1;whiteSpace=wrap;connectable=0;strokeColor=inherit;overflow=hidden;fillColor=none;top=0;left=0;bottom=0;right=0;pointerEvents=1;fontSize=20;" vertex="1" parent="j6pfKqDrukdR5E3IU2XC-25">
          <mxGeometry x="120" width="60" height="40" as="geometry">
            <mxRectangle width="60" height="40" as="alternateBounds" />
          </mxGeometry>
        </mxCell>
        <mxCell id="j6pfKqDrukdR5E3IU2XC-30" value="CO" style="shape=partialRectangle;html=1;whiteSpace=wrap;connectable=0;strokeColor=inherit;overflow=hidden;fillColor=none;top=0;left=0;bottom=0;right=0;pointerEvents=1;fontSize=20;" vertex="1" parent="j6pfKqDrukdR5E3IU2XC-25">
          <mxGeometry x="180" width="60" height="40" as="geometry">
            <mxRectangle width="60" height="40" as="alternateBounds" />
          </mxGeometry>
        </mxCell>
        <mxCell id="j6pfKqDrukdR5E3IU2XC-31" value="DEPARTMENT" style="shape=table;startSize=30;container=1;collapsible=0;childLayout=tableLayout;fontSize=20;" vertex="1" parent="1">
          <mxGeometry x="-580.4" y="405" width="256.794903094952" height="70" as="geometry" />
        </mxCell>
        <mxCell id="j6pfKqDrukdR5E3IU2XC-32" value="" style="shape=tableRow;horizontal=0;startSize=0;swimlaneHead=0;swimlaneBody=0;strokeColor=inherit;top=0;left=0;bottom=0;right=0;collapsible=0;dropTarget=0;fillColor=none;points=[[0,0.5],[1,0.5]];portConstraint=eastwest;fontSize=20;" vertex="1" parent="j6pfKqDrukdR5E3IU2XC-31">
          <mxGeometry y="30" width="256.794903094952" height="40" as="geometry" />
        </mxCell>
        <mxCell id="j6pfKqDrukdR5E3IU2XC-33" value="&lt;u style=&quot;font-size: 20px;&quot;&gt;D#&lt;span style=&quot;white-space: pre; font-size: 20px;&quot;&gt;&#x9;&lt;/span&gt;&lt;/u&gt;" style="shape=partialRectangle;html=1;whiteSpace=wrap;connectable=0;strokeColor=inherit;overflow=hidden;fillColor=none;top=0;left=0;bottom=0;right=0;pointerEvents=1;fontSize=20;" vertex="1" parent="j6pfKqDrukdR5E3IU2XC-32">
          <mxGeometry width="60" height="40" as="geometry">
            <mxRectangle width="60" height="40" as="alternateBounds" />
          </mxGeometry>
        </mxCell>
        <mxCell id="j6pfKqDrukdR5E3IU2XC-34" value="Name" style="shape=partialRectangle;html=1;whiteSpace=wrap;connectable=0;strokeColor=inherit;overflow=hidden;fillColor=none;top=0;left=0;bottom=0;right=0;pointerEvents=1;fontSize=20;" vertex="1" parent="j6pfKqDrukdR5E3IU2XC-32">
          <mxGeometry x="60" width="60" height="40" as="geometry">
            <mxRectangle width="60" height="40" as="alternateBounds" />
          </mxGeometry>
        </mxCell>
        <mxCell id="j6pfKqDrukdR5E3IU2XC-35" value="CD" style="shape=partialRectangle;html=1;whiteSpace=wrap;connectable=0;strokeColor=inherit;overflow=hidden;fillColor=none;top=0;left=0;bottom=0;right=0;pointerEvents=1;fontSize=20;" vertex="1" parent="j6pfKqDrukdR5E3IU2XC-32">
          <mxGeometry x="120" width="60" height="40" as="geometry">
            <mxRectangle width="60" height="40" as="alternateBounds" />
          </mxGeometry>
        </mxCell>
        <mxCell id="j6pfKqDrukdR5E3IU2XC-36" value="Offices" style="shape=partialRectangle;html=1;whiteSpace=wrap;connectable=0;strokeColor=inherit;overflow=hidden;fillColor=none;top=0;left=0;bottom=0;right=0;pointerEvents=1;fontSize=20;" vertex="1" parent="j6pfKqDrukdR5E3IU2XC-32">
          <mxGeometry x="180" width="77" height="40" as="geometry">
            <mxRectangle width="77" height="40" as="alternateBounds" />
          </mxGeometry>
        </mxCell>
        <mxCell id="j6pfKqDrukdR5E3IU2XC-37" value="COURSE" style="shape=table;startSize=30;container=1;collapsible=0;childLayout=tableLayout;fontSize=20;" vertex="1" parent="1">
          <mxGeometry x="-568" y="519" width="240" height="70" as="geometry" />
        </mxCell>
        <mxCell id="j6pfKqDrukdR5E3IU2XC-38" value="" style="shape=tableRow;horizontal=0;startSize=0;swimlaneHead=0;swimlaneBody=0;strokeColor=inherit;top=0;left=0;bottom=0;right=0;collapsible=0;dropTarget=0;fillColor=none;points=[[0,0.5],[1,0.5]];portConstraint=eastwest;fontSize=20;" vertex="1" parent="j6pfKqDrukdR5E3IU2XC-37">
          <mxGeometry y="30" width="240" height="40" as="geometry" />
        </mxCell>
        <mxCell id="j6pfKqDrukdR5E3IU2XC-39" value="&lt;u style=&quot;font-size: 20px;&quot;&gt;C#&lt;/u&gt;" style="shape=partialRectangle;html=1;whiteSpace=wrap;connectable=0;strokeColor=inherit;overflow=hidden;fillColor=none;top=0;left=0;bottom=0;right=0;pointerEvents=1;fontSize=20;" vertex="1" parent="j6pfKqDrukdR5E3IU2XC-38">
          <mxGeometry width="60" height="40" as="geometry">
            <mxRectangle width="60" height="40" as="alternateBounds" />
          </mxGeometry>
        </mxCell>
        <mxCell id="j6pfKqDrukdR5E3IU2XC-40" value="&lt;u style=&quot;font-size: 20px;&quot;&gt;Name&lt;/u&gt;" style="shape=partialRectangle;html=1;whiteSpace=wrap;connectable=0;strokeColor=inherit;overflow=hidden;fillColor=none;top=0;left=0;bottom=0;right=0;pointerEvents=1;fontSize=20;" vertex="1" parent="j6pfKqDrukdR5E3IU2XC-38">
          <mxGeometry x="60" width="60" height="40" as="geometry">
            <mxRectangle width="60" height="40" as="alternateBounds" />
          </mxGeometry>
        </mxCell>
        <mxCell id="j6pfKqDrukdR5E3IU2XC-41" value="D#" style="shape=partialRectangle;html=1;whiteSpace=wrap;connectable=0;strokeColor=inherit;overflow=hidden;fillColor=none;top=0;left=0;bottom=0;right=0;pointerEvents=1;fontSize=20;" vertex="1" parent="j6pfKqDrukdR5E3IU2XC-38">
          <mxGeometry x="120" width="60" height="40" as="geometry">
            <mxRectangle width="60" height="40" as="alternateBounds" />
          </mxGeometry>
        </mxCell>
        <mxCell id="j6pfKqDrukdR5E3IU2XC-42" value="Hours" style="shape=partialRectangle;html=1;whiteSpace=wrap;connectable=0;strokeColor=inherit;overflow=hidden;fillColor=none;top=0;left=0;bottom=0;right=0;pointerEvents=1;fontSize=20;" vertex="1" parent="j6pfKqDrukdR5E3IU2XC-38">
          <mxGeometry x="180" width="60" height="40" as="geometry">
            <mxRectangle width="60" height="40" as="alternateBounds" />
          </mxGeometry>
        </mxCell>
        <mxCell id="j6pfKqDrukdR5E3IU2XC-43" value="SECTION" style="shape=table;startSize=29;container=1;collapsible=0;childLayout=tableLayout;fontSize=20;" vertex="1" parent="1">
          <mxGeometry x="-632" y="651" width="420" height="70" as="geometry" />
        </mxCell>
        <mxCell id="j6pfKqDrukdR5E3IU2XC-44" value="" style="shape=tableRow;horizontal=0;startSize=0;swimlaneHead=0;swimlaneBody=0;strokeColor=inherit;top=0;left=0;bottom=0;right=0;collapsible=0;dropTarget=0;fillColor=none;points=[[0,0.5],[1,0.5]];portConstraint=eastwest;fontSize=20;" vertex="1" parent="j6pfKqDrukdR5E3IU2XC-43">
          <mxGeometry y="29" width="420" height="41" as="geometry" />
        </mxCell>
        <mxCell id="j6pfKqDrukdR5E3IU2XC-45" value="&lt;u style=&quot;font-size: 20px;&quot;&gt;SID&lt;/u&gt;" style="shape=partialRectangle;html=1;whiteSpace=wrap;connectable=0;strokeColor=inherit;overflow=hidden;fillColor=none;top=0;left=0;bottom=0;right=0;pointerEvents=1;fontSize=20;" vertex="1" parent="j6pfKqDrukdR5E3IU2XC-44">
          <mxGeometry width="60" height="41" as="geometry">
            <mxRectangle width="60" height="41" as="alternateBounds" />
          </mxGeometry>
        </mxCell>
        <mxCell id="j6pfKqDrukdR5E3IU2XC-46" value="C#" style="shape=partialRectangle;html=1;whiteSpace=wrap;connectable=0;strokeColor=inherit;overflow=hidden;fillColor=none;top=0;left=0;bottom=0;right=0;pointerEvents=1;fontSize=20;" vertex="1" parent="j6pfKqDrukdR5E3IU2XC-44">
          <mxGeometry x="60" width="60" height="41" as="geometry">
            <mxRectangle width="60" height="41" as="alternateBounds" />
          </mxGeometry>
        </mxCell>
        <mxCell id="j6pfKqDrukdR5E3IU2XC-47" value="Sem" style="shape=partialRectangle;html=1;whiteSpace=wrap;connectable=0;strokeColor=inherit;overflow=hidden;fillColor=none;top=0;left=0;bottom=0;right=0;pointerEvents=1;fontSize=20;" vertex="1" parent="j6pfKqDrukdR5E3IU2XC-44">
          <mxGeometry x="120" width="60" height="41" as="geometry">
            <mxRectangle width="60" height="41" as="alternateBounds" />
          </mxGeometry>
        </mxCell>
        <mxCell id="j6pfKqDrukdR5E3IU2XC-48" value="Year" style="shape=partialRectangle;html=1;whiteSpace=wrap;connectable=0;strokeColor=inherit;overflow=hidden;fillColor=none;top=0;left=0;bottom=0;right=0;pointerEvents=1;fontSize=20;" vertex="1" parent="j6pfKqDrukdR5E3IU2XC-44">
          <mxGeometry x="180" width="60" height="41" as="geometry">
            <mxRectangle width="60" height="41" as="alternateBounds" />
          </mxGeometry>
        </mxCell>
        <mxCell id="j6pfKqDrukdR5E3IU2XC-49" value="R#" style="shape=partialRectangle;html=1;whiteSpace=wrap;connectable=0;strokeColor=inherit;overflow=hidden;fillColor=none;top=0;left=0;bottom=0;right=0;pointerEvents=1;fontSize=20;" vertex="1" parent="j6pfKqDrukdR5E3IU2XC-44">
          <mxGeometry x="240" width="60" height="41" as="geometry">
            <mxRectangle width="60" height="41" as="alternateBounds" />
          </mxGeometry>
        </mxCell>
        <mxCell id="j6pfKqDrukdR5E3IU2XC-50" value="I#" style="shape=partialRectangle;html=1;whiteSpace=wrap;connectable=0;strokeColor=inherit;overflow=hidden;fillColor=none;top=0;left=0;bottom=0;right=0;pointerEvents=1;fontSize=20;" vertex="1" parent="j6pfKqDrukdR5E3IU2XC-44">
          <mxGeometry x="300" width="60" height="41" as="geometry">
            <mxRectangle width="60" height="41" as="alternateBounds" />
          </mxGeometry>
        </mxCell>
        <mxCell id="j6pfKqDrukdR5E3IU2XC-81" value="TID" style="shape=partialRectangle;html=1;whiteSpace=wrap;connectable=0;strokeColor=inherit;overflow=hidden;fillColor=none;top=0;left=0;bottom=0;right=0;pointerEvents=1;fontSize=20;" vertex="1" parent="j6pfKqDrukdR5E3IU2XC-44">
          <mxGeometry x="360" width="60" height="41" as="geometry">
            <mxRectangle width="60" height="41" as="alternateBounds" />
          </mxGeometry>
        </mxCell>
        <mxCell id="j6pfKqDrukdR5E3IU2XC-51" value="TIMESLOT" style="shape=table;startSize=30;container=1;collapsible=0;childLayout=tableLayout;fontSize=20;" vertex="1" parent="1">
          <mxGeometry x="-572" y="773" width="240" height="70" as="geometry" />
        </mxCell>
        <mxCell id="j6pfKqDrukdR5E3IU2XC-52" value="" style="shape=tableRow;horizontal=0;startSize=0;swimlaneHead=0;swimlaneBody=0;strokeColor=inherit;top=0;left=0;bottom=0;right=0;collapsible=0;dropTarget=0;fillColor=none;points=[[0,0.5],[1,0.5]];portConstraint=eastwest;fontSize=20;" vertex="1" parent="j6pfKqDrukdR5E3IU2XC-51">
          <mxGeometry y="30" width="240" height="40" as="geometry" />
        </mxCell>
        <mxCell id="j6pfKqDrukdR5E3IU2XC-53" value="&lt;u style=&quot;font-size: 20px;&quot;&gt;TID&lt;/u&gt;" style="shape=partialRectangle;html=1;whiteSpace=wrap;connectable=0;strokeColor=inherit;overflow=hidden;fillColor=none;top=0;left=0;bottom=0;right=0;pointerEvents=1;fontSize=20;" vertex="1" parent="j6pfKqDrukdR5E3IU2XC-52">
          <mxGeometry width="60" height="40" as="geometry">
            <mxRectangle width="60" height="40" as="alternateBounds" />
          </mxGeometry>
        </mxCell>
        <mxCell id="j6pfKqDrukdR5E3IU2XC-54" value="Day" style="shape=partialRectangle;html=1;whiteSpace=wrap;connectable=0;strokeColor=inherit;overflow=hidden;fillColor=none;top=0;left=0;bottom=0;right=0;pointerEvents=1;fontSize=20;" vertex="1" parent="j6pfKqDrukdR5E3IU2XC-52">
          <mxGeometry x="60" width="60" height="40" as="geometry">
            <mxRectangle width="60" height="40" as="alternateBounds" />
          </mxGeometry>
        </mxCell>
        <mxCell id="j6pfKqDrukdR5E3IU2XC-55" value="Start" style="shape=partialRectangle;html=1;whiteSpace=wrap;connectable=0;strokeColor=inherit;overflow=hidden;fillColor=none;top=0;left=0;bottom=0;right=0;pointerEvents=1;fontSize=20;" vertex="1" parent="j6pfKqDrukdR5E3IU2XC-52">
          <mxGeometry x="120" width="60" height="40" as="geometry">
            <mxRectangle width="60" height="40" as="alternateBounds" />
          </mxGeometry>
        </mxCell>
        <mxCell id="j6pfKqDrukdR5E3IU2XC-56" value="End" style="shape=partialRectangle;html=1;whiteSpace=wrap;connectable=0;strokeColor=inherit;overflow=hidden;fillColor=none;top=0;left=0;bottom=0;right=0;pointerEvents=1;fontSize=20;" vertex="1" parent="j6pfKqDrukdR5E3IU2XC-52">
          <mxGeometry x="180" width="60" height="40" as="geometry">
            <mxRectangle width="60" height="40" as="alternateBounds" />
          </mxGeometry>
        </mxCell>
        <mxCell id="j6pfKqDrukdR5E3IU2XC-57" value="INSTRUCTOR" style="shape=table;startSize=30;container=1;collapsible=0;childLayout=tableLayout;fontSize=20;" vertex="1" parent="1">
          <mxGeometry x="-572" y="893" width="240" height="70" as="geometry" />
        </mxCell>
        <mxCell id="j6pfKqDrukdR5E3IU2XC-58" value="" style="shape=tableRow;horizontal=0;startSize=0;swimlaneHead=0;swimlaneBody=0;strokeColor=inherit;top=0;left=0;bottom=0;right=0;collapsible=0;dropTarget=0;fillColor=none;points=[[0,0.5],[1,0.5]];portConstraint=eastwest;fontSize=20;" vertex="1" parent="j6pfKqDrukdR5E3IU2XC-57">
          <mxGeometry y="30" width="240" height="40" as="geometry" />
        </mxCell>
        <mxCell id="j6pfKqDrukdR5E3IU2XC-59" value="&lt;u style=&quot;font-size: 20px;&quot;&gt;I#&lt;/u&gt;" style="shape=partialRectangle;html=1;whiteSpace=wrap;connectable=0;strokeColor=inherit;overflow=hidden;fillColor=none;top=0;left=0;bottom=0;right=0;pointerEvents=1;fontSize=20;" vertex="1" parent="j6pfKqDrukdR5E3IU2XC-58">
          <mxGeometry width="60" height="40" as="geometry">
            <mxRectangle width="60" height="40" as="alternateBounds" />
          </mxGeometry>
        </mxCell>
        <mxCell id="j6pfKqDrukdR5E3IU2XC-60" value="Name" style="shape=partialRectangle;html=1;whiteSpace=wrap;connectable=0;strokeColor=inherit;overflow=hidden;fillColor=none;top=0;left=0;bottom=0;right=0;pointerEvents=1;fontSize=20;" vertex="1" parent="j6pfKqDrukdR5E3IU2XC-58">
          <mxGeometry x="60" width="60" height="40" as="geometry">
            <mxRectangle width="60" height="40" as="alternateBounds" />
          </mxGeometry>
        </mxCell>
        <mxCell id="j6pfKqDrukdR5E3IU2XC-61" value="R#" style="shape=partialRectangle;html=1;whiteSpace=wrap;connectable=0;strokeColor=inherit;overflow=hidden;fillColor=none;top=0;left=0;bottom=0;right=0;pointerEvents=1;fontSize=20;" vertex="1" parent="j6pfKqDrukdR5E3IU2XC-58">
          <mxGeometry x="120" width="60" height="40" as="geometry">
            <mxRectangle width="60" height="40" as="alternateBounds" />
          </mxGeometry>
        </mxCell>
        <mxCell id="j6pfKqDrukdR5E3IU2XC-62" value="D#" style="shape=partialRectangle;html=1;whiteSpace=wrap;connectable=0;strokeColor=inherit;overflow=hidden;fillColor=none;top=0;left=0;bottom=0;right=0;pointerEvents=1;fontSize=20;" vertex="1" parent="j6pfKqDrukdR5E3IU2XC-58">
          <mxGeometry x="180" width="60" height="40" as="geometry">
            <mxRectangle width="60" height="40" as="alternateBounds" />
          </mxGeometry>
        </mxCell>
        <mxCell id="j6pfKqDrukdR5E3IU2XC-67" value="STUDENT" style="shape=table;startSize=30;container=1;collapsible=0;childLayout=tableLayout;fontSize=20;" vertex="1" parent="1">
          <mxGeometry x="-542" y="1003" width="180" height="70" as="geometry" />
        </mxCell>
        <mxCell id="j6pfKqDrukdR5E3IU2XC-68" value="" style="shape=tableRow;horizontal=0;startSize=0;swimlaneHead=0;swimlaneBody=0;strokeColor=inherit;top=0;left=0;bottom=0;right=0;collapsible=0;dropTarget=0;fillColor=none;points=[[0,0.5],[1,0.5]];portConstraint=eastwest;fontSize=20;" vertex="1" parent="j6pfKqDrukdR5E3IU2XC-67">
          <mxGeometry y="30" width="180" height="40" as="geometry" />
        </mxCell>
        <mxCell id="j6pfKqDrukdR5E3IU2XC-69" value="&lt;u&gt;S#&lt;span style=&quot;white-space: pre; font-size: 20px;&quot;&gt;&#x9;&lt;/span&gt;&lt;/u&gt;" style="shape=partialRectangle;html=1;whiteSpace=wrap;connectable=0;strokeColor=inherit;overflow=hidden;fillColor=none;top=0;left=0;bottom=0;right=0;pointerEvents=1;fontSize=20;" vertex="1" parent="j6pfKqDrukdR5E3IU2XC-68">
          <mxGeometry width="60" height="40" as="geometry">
            <mxRectangle width="60" height="40" as="alternateBounds" />
          </mxGeometry>
        </mxCell>
        <mxCell id="j6pfKqDrukdR5E3IU2XC-70" value="Name" style="shape=partialRectangle;html=1;whiteSpace=wrap;connectable=0;strokeColor=inherit;overflow=hidden;fillColor=none;top=0;left=0;bottom=0;right=0;pointerEvents=1;fontSize=20;" vertex="1" parent="j6pfKqDrukdR5E3IU2XC-68">
          <mxGeometry x="60" width="60" height="40" as="geometry">
            <mxRectangle width="60" height="40" as="alternateBounds" />
          </mxGeometry>
        </mxCell>
        <mxCell id="j6pfKqDrukdR5E3IU2XC-71" value="D#" style="shape=partialRectangle;html=1;whiteSpace=wrap;connectable=0;strokeColor=inherit;overflow=hidden;fillColor=none;top=0;left=0;bottom=0;right=0;pointerEvents=1;fontSize=20;" vertex="1" parent="j6pfKqDrukdR5E3IU2XC-68">
          <mxGeometry x="120" width="60" height="40" as="geometry">
            <mxRectangle width="60" height="40" as="alternateBounds" />
          </mxGeometry>
        </mxCell>
        <mxCell id="j6pfKqDrukdR5E3IU2XC-73" style="edgeStyle=orthogonalEdgeStyle;rounded=0;orthogonalLoop=1;jettySize=auto;html=1;exitX=0.381;exitY=1.007;exitDx=0;exitDy=0;exitPerimeter=0;entryX=0.126;entryY=0.977;entryDx=0;entryDy=0;entryPerimeter=0;" edge="1" parent="1" source="j6pfKqDrukdR5E3IU2XC-19" target="j6pfKqDrukdR5E3IU2XC-12">
          <mxGeometry relative="1" as="geometry">
            <mxPoint x="-536.6666259765625" y="112.66668701171875" as="targetPoint" />
            <Array as="points">
              <mxPoint x="-481" y="251" />
              <mxPoint x="-306" y="251" />
              <mxPoint x="-306" y="150" />
              <mxPoint x="-538" y="150" />
            </Array>
          </mxGeometry>
        </mxCell>
        <mxCell id="j6pfKqDrukdR5E3IU2XC-76" style="edgeStyle=orthogonalEdgeStyle;rounded=0;orthogonalLoop=1;jettySize=auto;html=1;exitX=0.367;exitY=0.956;exitDx=0;exitDy=0;exitPerimeter=0;" edge="1" parent="1" source="j6pfKqDrukdR5E3IU2XC-25" target="j6pfKqDrukdR5E3IU2XC-12">
          <mxGeometry relative="1" as="geometry">
            <Array as="points">
              <mxPoint x="-484" y="381" />
              <mxPoint x="-644" y="381" />
              <mxPoint x="-644" y="135" />
              <mxPoint x="-557" y="135" />
            </Array>
          </mxGeometry>
        </mxCell>
        <mxCell id="j6pfKqDrukdR5E3IU2XC-78" style="edgeStyle=orthogonalEdgeStyle;rounded=0;orthogonalLoop=1;jettySize=auto;html=1;entryX=0.101;entryY=1.079;entryDx=0;entryDy=0;entryPerimeter=0;exitX=0.621;exitY=0.998;exitDx=0;exitDy=0;exitPerimeter=0;" edge="1" parent="1" source="j6pfKqDrukdR5E3IU2XC-38" target="j6pfKqDrukdR5E3IU2XC-32">
          <mxGeometry relative="1" as="geometry">
            <Array as="points">
              <mxPoint x="-419" y="614" />
              <mxPoint x="-304" y="614" />
              <mxPoint x="-304" y="503" />
              <mxPoint x="-555" y="503" />
            </Array>
          </mxGeometry>
        </mxCell>
        <mxCell id="j6pfKqDrukdR5E3IU2XC-79" style="edgeStyle=orthogonalEdgeStyle;rounded=0;orthogonalLoop=1;jettySize=auto;html=1;entryX=0.108;entryY=1.101;entryDx=0;entryDy=0;entryPerimeter=0;exitX=0.258;exitY=1.006;exitDx=0;exitDy=0;exitPerimeter=0;" edge="1" parent="1" source="j6pfKqDrukdR5E3IU2XC-44" target="j6pfKqDrukdR5E3IU2XC-38">
          <mxGeometry relative="1" as="geometry">
            <Array as="points">
              <mxPoint x="-539" y="746" />
              <mxPoint x="-678" y="746" />
              <mxPoint x="-678" y="637" />
              <mxPoint x="-542" y="637" />
            </Array>
          </mxGeometry>
        </mxCell>
        <mxCell id="j6pfKqDrukdR5E3IU2XC-80" style="edgeStyle=orthogonalEdgeStyle;rounded=0;orthogonalLoop=1;jettySize=auto;html=1;entryX=0.137;entryY=1.159;entryDx=0;entryDy=0;entryPerimeter=0;exitX=0.78;exitY=1.006;exitDx=0;exitDy=0;exitPerimeter=0;" edge="1" parent="1" source="j6pfKqDrukdR5E3IU2XC-44" target="j6pfKqDrukdR5E3IU2XC-19">
          <mxGeometry relative="1" as="geometry">
            <Array as="points">
              <mxPoint x="-351" y="721" />
              <mxPoint x="-351" y="731" />
              <mxPoint x="-181" y="731" />
              <mxPoint x="-181" y="271" />
              <mxPoint x="-539" y="271" />
            </Array>
          </mxGeometry>
        </mxCell>
        <mxCell id="j6pfKqDrukdR5E3IU2XC-82" style="edgeStyle=orthogonalEdgeStyle;rounded=0;orthogonalLoop=1;jettySize=auto;html=1;entryX=0.941;entryY=1.052;entryDx=0;entryDy=0;entryPerimeter=0;exitX=0.148;exitY=1.003;exitDx=0;exitDy=0;exitPerimeter=0;" edge="1" parent="1" source="j6pfKqDrukdR5E3IU2XC-52" target="j6pfKqDrukdR5E3IU2XC-44">
          <mxGeometry relative="1" as="geometry">
            <Array as="points">
              <mxPoint x="-536" y="864" />
              <mxPoint x="-237" y="864" />
            </Array>
          </mxGeometry>
        </mxCell>
        <mxCell id="j6pfKqDrukdR5E3IU2XC-83" style="edgeStyle=orthogonalEdgeStyle;rounded=0;orthogonalLoop=1;jettySize=auto;html=1;entryX=0.051;entryY=0.998;entryDx=0;entryDy=0;entryPerimeter=0;exitX=0.87;exitY=1.029;exitDx=0;exitDy=0;exitPerimeter=0;" edge="1" parent="1" source="j6pfKqDrukdR5E3IU2XC-58" target="j6pfKqDrukdR5E3IU2XC-32">
          <mxGeometry relative="1" as="geometry">
            <mxPoint x="-726.2050969050481" y="400.0512507512019" as="targetPoint" />
            <Array as="points">
              <mxPoint x="-363" y="990" />
              <mxPoint x="-732" y="990" />
              <mxPoint x="-732" y="513" />
              <mxPoint x="-567" y="513" />
            </Array>
          </mxGeometry>
        </mxCell>
        <mxCell id="j6pfKqDrukdR5E3IU2XC-84" style="edgeStyle=orthogonalEdgeStyle;rounded=0;orthogonalLoop=1;jettySize=auto;html=1;entryX=0.135;entryY=1.104;entryDx=0;entryDy=0;entryPerimeter=0;" edge="1" parent="1" target="j6pfKqDrukdR5E3IU2XC-25">
          <mxGeometry relative="1" as="geometry">
            <mxPoint x="-425" y="962" as="sourcePoint" />
            <Array as="points">
              <mxPoint x="-425" y="981" />
              <mxPoint x="-196" y="981" />
              <mxPoint x="-196" y="388" />
              <mxPoint x="-540" y="388" />
            </Array>
          </mxGeometry>
        </mxCell>
        <mxCell id="j6pfKqDrukdR5E3IU2XC-85" style="edgeStyle=orthogonalEdgeStyle;rounded=0;orthogonalLoop=1;jettySize=auto;html=1;entryX=0.789;entryY=1.102;entryDx=0;entryDy=0;entryPerimeter=0;exitX=0.146;exitY=1.175;exitDx=0;exitDy=0;exitPerimeter=0;" edge="1" parent="1" source="j6pfKqDrukdR5E3IU2XC-58" target="j6pfKqDrukdR5E3IU2XC-44">
          <mxGeometry relative="1" as="geometry">
            <Array as="points">
              <mxPoint x="-537" y="979" />
              <mxPoint x="-652" y="979" />
              <mxPoint x="-652" y="763" />
              <mxPoint x="-301" y="763" />
            </Array>
          </mxGeometry>
        </mxCell>
        <mxCell id="j6pfKqDrukdR5E3IU2XC-86" style="edgeStyle=orthogonalEdgeStyle;rounded=0;orthogonalLoop=1;jettySize=auto;html=1;entryX=0.155;entryY=0.998;entryDx=0;entryDy=0;entryPerimeter=0;exitX=0.874;exitY=1.176;exitDx=0;exitDy=0;exitPerimeter=0;" edge="1" parent="1" source="j6pfKqDrukdR5E3IU2XC-68" target="j6pfKqDrukdR5E3IU2XC-32">
          <mxGeometry relative="1" as="geometry">
            <Array as="points">
              <mxPoint x="-385" y="1093" />
              <mxPoint x="-173" y="1093" />
              <mxPoint x="-173" y="493" />
              <mxPoint x="-541" y="493" />
            </Array>
          </mxGeometry>
        </mxCell>
      </root>
    </mxGraphModel>
  </diagram>
</mxfile>
